<svg width="48" height="48" viewBox="0 0 48 48" fill="none" xmlns="http://www.w3.org/2000/svg">
<path d="M15.2835 39.0933L12.463 44.2841" stroke="black" stroke-width="3" stroke-linecap="round" stroke-linejoin="round"/>
<path d="M32.2108 39.0933L35.0312 44.2841" stroke="black" stroke-width="3" stroke-linecap="round" stroke-linejoin="round"/>
<path d="M23.7471 41.4068C33.0952 41.4068 40.6733 33.6772 40.6733 24.1421C40.6733 14.6071 33.0952 6.87744 23.7471 6.87744C14.3991 6.87744 6.82095 14.6071 6.82095 24.1421C6.82095 33.6772 14.3991 41.4068 23.7471 41.4068Z" stroke="black" stroke-width="3" stroke-linecap="round" stroke-linejoin="round"/>
<path d="M7.3873 19.5398C6.08785 18.5463 5.09605 17.1925 4.53026 15.6399C3.96447 14.0872 3.84858 12.4013 4.19641 10.7834C4.54425 9.16538 5.34112 7.68364 6.49194 6.51495C7.64276 5.34626 9.09893 4.53997 10.6867 4.1923C12.2745 3.84462 13.9268 3.97024 15.4465 4.55416C16.9661 5.13809 18.289 6.15566 19.2573 7.48545" stroke="black" stroke-width="3" stroke-linecap="round" stroke-linejoin="round"/>
<path d="M23.7471 6.87744L23.7471 4" stroke="black" stroke-width="3" stroke-linecap="round" stroke-linejoin="round"/>
<path d="M23.7471 15.5098V24.1421" stroke="black" stroke-width="3" stroke-linecap="round" stroke-linejoin="round"/>
<path d="M23.7471 24.1421L29.7314 30.2461" stroke="black" stroke-width="3" stroke-linecap="round" stroke-linejoin="round"/>
<path d="M40.107 19.5398C41.4064 18.5463 42.3982 17.1925 42.964 15.6399C43.5298 14.0872 43.6457 12.4013 43.2978 10.7834C42.95 9.16538 42.1531 7.68364 41.0023 6.51495C39.8515 5.34626 38.3953 4.53997 36.8076 4.1923C35.2198 3.84462 33.5675 3.97024 32.0478 4.55416C30.5281 5.13809 29.2052 6.15566 28.237 7.48545" stroke="black" stroke-width="3" stroke-linecap="round" stroke-linejoin="round"/>
</svg>
